#N canvas 469 5 903 673 10;
#X declare -lib mrpeach;
#X obj 401 61 import mrpeach;
#X obj 400 109 unpackOSC;
#X obj 318 205 unpack f;
#X floatatom 318 230 5 0 0 0 - - -;
#X obj 400 88 udpreceive 12345;
#X obj 400 154 routeOSC /velocity;
#X obj 457 183 routeOSC /right;
#X obj 318 181 routeOSC /left;
#X obj 457 208 unpack f;
#X floatatom 457 232 5 0 0 0 - - -;
#X obj 319 250 change;
#X obj 318 273 bng 15 250 50 0 empty empty empty 17 7 0 10 -262144
-1 -1;
#X msg 318 297 open stroke.wav \, 1;
#X obj 457 254 change;
#X obj 457 275 bng 15 250 50 0 empty empty empty 17 7 0 10 -262144
-1 -1;
#X obj 457 321 readsf~;
#X msg 457 295 open stroke_back.wav \, 1;
#X obj 318 320 readsf~;
#X obj 395 343 +~;
#X obj 205 309 counter;
#X floatatom 262 346 5 0 0 0 - - -;
#X obj 166 248 bng 50 250 50 0 empty empty Start_Race 57 7 0 10 -262144
-1 -1;
#X obj 166 206 unpack f;
#X msg 166 227 bang;
#X obj 184 443 readsf~;
#X obj 396 489 *~;
#X obj 429 470 hsl 128 15 0 1 0 0 empty empty empty -2 -8 0 10 -262144
-1 -1 12700 1;
#X floatatom 426 490 5 0 0 0 - - -;
#X msg 107 419 open race.wav \, 1;
#X obj 376 519 output~;
#X obj 166 181 routeOSC /startrace;
#X obj 184 397 bng 15 250 50 0 empty empty empty 17 7 0 10 -262144
-1 -1;
#X obj 262 366 moses 70;
#X msg 220 419 stop;
#X obj 184 366 delay 50000;
#X obj 620 181 routeOSC /ceremony;
#X obj 620 207 unpack f;
#X floatatom 620 231 5 0 0 0 - - -;
#X obj 620 269 bng 15 250 50 0 empty empty empty 17 7 0 10 -262144
-1 -1;
#X obj 620 396 readsf~;
#X obj 410 385 knob 32 32 0 1 0 0 empty empty STROKES 0 -8 0 8 -262144
-1 -1 3100 1;
#X obj 395 424 *~;
#X msg 63 417 stop;
#X obj 52 440 readsf~;
#X obj 214 571 knob 32 32 0 1 0 0 empty empty RACE 0 -8 0 8 -262144
-1 -1 1240 1;
#X obj 199 610 *~;
#X msg 284 534 0.5;
#X msg 427 350 1;
#X obj 385 245 loadbang;
#X msg 462 350 1;
#X msg 20 276 open racefinish.wav \, 1;
#X msg 7 251 open prerace.wav \, 1;
#X obj 7 181 bng 60 250 50 0 empty empty START_CONCERT 0 -10 0 10 -4034
-1 -1;
#X msg 191 344 stop;
#X msg 323 350 70;
#X obj 10 83 keyup;
#X floatatom 9 112 5 0 0 0 - - -;
#X obj 8 137 sel 10;
#X obj 290 153 routeOSC /stroke;
#X msg 620 296 open postrace_anouncement_v3.wav \, 1;
#X msg 630 371 stop;
#X msg 528 336 stop;
#X obj 768 189 bng 50 250 50 0 empty empty STOP_ALL 0 -10 0 10 -258113
-1 -1;
#X msg 163 484 0.6 200;
#X obj 163 508 line 0.6 200;
#X msg 246 482 0.4 200;
#X obj 246 507 line 0.4 200;
#X connect 1 0 5 0;
#X connect 1 0 30 0;
#X connect 1 0 35 0;
#X connect 2 0 3 0;
#X connect 3 0 10 0;
#X connect 4 0 1 0;
#X connect 5 0 6 0;
#X connect 5 0 7 0;
#X connect 5 0 58 0;
#X connect 6 0 8 0;
#X connect 7 0 2 0;
#X connect 8 0 9 0;
#X connect 9 0 13 0;
#X connect 10 0 11 0;
#X connect 11 0 12 0;
#X connect 11 0 19 0;
#X connect 11 0 63 0;
#X connect 12 0 17 0;
#X connect 13 0 14 0;
#X connect 14 0 16 0;
#X connect 14 0 19 0;
#X connect 14 0 65 0;
#X connect 15 0 18 1;
#X connect 16 0 15 0;
#X connect 17 0 18 0;
#X connect 18 0 41 0;
#X connect 20 0 32 0;
#X connect 21 0 28 0;
#X connect 21 0 19 3;
#X connect 21 0 34 0;
#X connect 21 0 42 0;
#X connect 22 0 23 0;
#X connect 23 0 21 0;
#X connect 24 0 45 0;
#X connect 25 0 29 0;
#X connect 25 0 29 1;
#X connect 26 0 25 1;
#X connect 26 0 27 0;
#X connect 28 0 24 0;
#X connect 30 0 22 0;
#X connect 31 0 33 0;
#X connect 31 0 50 0;
#X connect 32 1 31 0;
#X connect 32 1 53 0;
#X connect 33 0 24 0;
#X connect 34 0 31 0;
#X connect 35 0 36 0;
#X connect 36 0 37 0;
#X connect 37 0 38 0;
#X connect 38 0 59 0;
#X connect 39 0 25 0;
#X connect 40 0 41 1;
#X connect 41 0 25 0;
#X connect 42 0 43 0;
#X connect 43 0 25 0;
#X connect 44 0 45 1;
#X connect 45 0 25 0;
#X connect 46 0 44 0;
#X connect 47 0 40 0;
#X connect 48 0 46 0;
#X connect 48 0 47 0;
#X connect 48 0 49 0;
#X connect 48 0 54 0;
#X connect 49 0 26 0;
#X connect 50 0 43 0;
#X connect 51 0 43 0;
#X connect 52 0 51 0;
#X connect 53 0 34 0;
#X connect 54 0 32 1;
#X connect 55 0 56 0;
#X connect 56 0 57 0;
#X connect 57 0 52 0;
#X connect 58 0 20 0;
#X connect 59 0 39 0;
#X connect 60 0 39 0;
#X connect 61 0 15 0;
#X connect 61 0 17 0;
#X connect 62 0 61 0;
#X connect 62 0 60 0;
#X connect 62 0 33 0;
#X connect 62 0 42 0;
#X connect 62 0 53 0;
#X connect 63 0 64 0;
#X connect 64 0 44 0;
#X connect 65 0 66 0;
#X connect 66 0 44 0;
